<mxfile host="app.diagrams.net" modified="2023-09-13T19:21:55.627Z" agent="Mozilla/5.0 (Windows NT 10.0; Win64; x64; rv:109.0) Gecko/20100101 Firefox/117.0" etag="tJafzP8KK_AiDjuBTETu" version="21.7.5" type="device">
  <diagram name="Pagina-1" id="obTn7jBoJpnhoFnN49Yq">
    <mxGraphModel dx="1382" dy="861" grid="1" gridSize="10" guides="1" tooltips="1" connect="1" arrows="1" fold="1" page="1" pageScale="1" pageWidth="1169" pageHeight="827" math="0" shadow="0">
      <root>
        <mxCell id="0" />
        <mxCell id="1" parent="0" />
        <mxCell id="rJMExQcC0TxC6yOzS3OH-2" value="" style="rounded=0;whiteSpace=wrap;html=1;fillColor=none;fontColor=#333333;strokeColor=#000000;strokeWidth=5;" vertex="1" parent="1">
          <mxGeometry x="170" y="40" width="810" height="480" as="geometry" />
        </mxCell>
        <mxCell id="rJMExQcC0TxC6yOzS3OH-3" value="&lt;font style=&quot;font-size: 24px;&quot;&gt;CONTROL UNIT&lt;/font&gt;" style="whiteSpace=wrap;html=1;aspect=fixed;" vertex="1" parent="1">
          <mxGeometry x="510" y="350" width="150" height="150" as="geometry" />
        </mxCell>
        <mxCell id="rJMExQcC0TxC6yOzS3OH-4" value="" style="rounded=0;whiteSpace=wrap;html=1;" vertex="1" parent="1">
          <mxGeometry x="200" y="70" width="750" height="220" as="geometry" />
        </mxCell>
        <mxCell id="rJMExQcC0TxC6yOzS3OH-5" value="&lt;font style=&quot;font-size: 24px;&quot;&gt;IF&lt;/font&gt;" style="whiteSpace=wrap;html=1;aspect=fixed;" vertex="1" parent="1">
          <mxGeometry x="267.5" y="90" width="80" height="80" as="geometry" />
        </mxCell>
        <mxCell id="rJMExQcC0TxC6yOzS3OH-6" value="&lt;font style=&quot;font-size: 24px;&quot;&gt;ID&lt;/font&gt;" style="whiteSpace=wrap;html=1;aspect=fixed;" vertex="1" parent="1">
          <mxGeometry x="407.5" y="90" width="80" height="80" as="geometry" />
        </mxCell>
        <mxCell id="rJMExQcC0TxC6yOzS3OH-7" value="&lt;font style=&quot;font-size: 24px;&quot;&gt;EXE&lt;/font&gt;" style="whiteSpace=wrap;html=1;aspect=fixed;" vertex="1" parent="1">
          <mxGeometry x="541.5" y="90" width="80" height="80" as="geometry" />
        </mxCell>
        <mxCell id="rJMExQcC0TxC6yOzS3OH-8" value="&lt;font style=&quot;font-size: 24px;&quot;&gt;MEM&lt;/font&gt;" style="whiteSpace=wrap;html=1;aspect=fixed;" vertex="1" parent="1">
          <mxGeometry x="677.5" y="90" width="80" height="80" as="geometry" />
        </mxCell>
        <mxCell id="rJMExQcC0TxC6yOzS3OH-9" value="&lt;font style=&quot;font-size: 24px;&quot;&gt;WB&lt;/font&gt;" style="whiteSpace=wrap;html=1;aspect=fixed;" vertex="1" parent="1">
          <mxGeometry x="807.5" y="90" width="80" height="80" as="geometry" />
        </mxCell>
        <mxCell id="rJMExQcC0TxC6yOzS3OH-10" value="" style="shape=flexArrow;endArrow=classic;html=1;rounded=0;fillColor=#000000;strokeColor=#000000;exitX=1;exitY=0.5;exitDx=0;exitDy=0;" edge="1" parent="1" source="rJMExQcC0TxC6yOzS3OH-5">
          <mxGeometry width="50" height="50" relative="1" as="geometry">
            <mxPoint x="357.5" y="129.86" as="sourcePoint" />
            <mxPoint x="407.5" y="129.86" as="targetPoint" />
          </mxGeometry>
        </mxCell>
        <mxCell id="rJMExQcC0TxC6yOzS3OH-11" value="" style="shape=flexArrow;endArrow=classic;html=1;rounded=0;fillColor=#000000;strokeColor=#000000;exitX=1;exitY=0.5;exitDx=0;exitDy=0;" edge="1" parent="1" source="rJMExQcC0TxC6yOzS3OH-6">
          <mxGeometry width="50" height="50" relative="1" as="geometry">
            <mxPoint x="491.5" y="129.86" as="sourcePoint" />
            <mxPoint x="541.5" y="129.86" as="targetPoint" />
          </mxGeometry>
        </mxCell>
        <mxCell id="rJMExQcC0TxC6yOzS3OH-12" value="" style="shape=flexArrow;endArrow=classic;html=1;rounded=0;fillColor=#000000;strokeColor=#000000;exitX=1;exitY=0.5;exitDx=0;exitDy=0;" edge="1" parent="1" source="rJMExQcC0TxC6yOzS3OH-7">
          <mxGeometry width="50" height="50" relative="1" as="geometry">
            <mxPoint x="627.5" y="129.86" as="sourcePoint" />
            <mxPoint x="677.5" y="129.86" as="targetPoint" />
          </mxGeometry>
        </mxCell>
        <mxCell id="rJMExQcC0TxC6yOzS3OH-13" value="" style="shape=flexArrow;endArrow=classic;html=1;rounded=0;fillColor=#000000;strokeColor=#000000;" edge="1" parent="1">
          <mxGeometry width="50" height="50" relative="1" as="geometry">
            <mxPoint x="757.5" y="129.86" as="sourcePoint" />
            <mxPoint x="807.5" y="129.86" as="targetPoint" />
          </mxGeometry>
        </mxCell>
        <mxCell id="rJMExQcC0TxC6yOzS3OH-14" value="&lt;font style=&quot;font-size: 24px;&quot;&gt;DATAPATH&lt;/font&gt;" style="text;html=1;strokeColor=none;fillColor=none;align=center;verticalAlign=middle;whiteSpace=wrap;rounded=0;" vertex="1" parent="1">
          <mxGeometry x="180" y="250" width="180" height="30" as="geometry" />
        </mxCell>
        <mxCell id="rJMExQcC0TxC6yOzS3OH-15" value="&lt;font style=&quot;font-size: 32px;&quot;&gt;DLX&lt;/font&gt;" style="text;html=1;strokeColor=none;fillColor=none;align=center;verticalAlign=middle;whiteSpace=wrap;rounded=0;" vertex="1" parent="1">
          <mxGeometry x="900" y="470" width="60" height="30" as="geometry" />
        </mxCell>
        <mxCell id="rJMExQcC0TxC6yOzS3OH-16" value="FORWARDING UNIT" style="whiteSpace=wrap;html=1;aspect=fixed;" vertex="1" parent="1">
          <mxGeometry x="446.5" y="190" width="85" height="85" as="geometry" />
        </mxCell>
        <mxCell id="rJMExQcC0TxC6yOzS3OH-17" value="BRANCH COUNTER" style="whiteSpace=wrap;html=1;aspect=fixed;" vertex="1" parent="1">
          <mxGeometry x="541.5" y="190" width="85" height="85" as="geometry" />
        </mxCell>
        <mxCell id="rJMExQcC0TxC6yOzS3OH-18" value="DIVISION COUNTER" style="whiteSpace=wrap;html=1;aspect=fixed;" vertex="1" parent="1">
          <mxGeometry x="631.5" y="190" width="85" height="85" as="geometry" />
        </mxCell>
        <mxCell id="rJMExQcC0TxC6yOzS3OH-19" value="" style="shape=flexArrow;endArrow=classic;html=1;rounded=0;fillColor=#000000;strokeColor=#000000;exitX=1;exitY=0.5;exitDx=0;exitDy=0;startArrow=block;" edge="1" parent="1">
          <mxGeometry width="50" height="50" relative="1" as="geometry">
            <mxPoint x="583.8" y="290.14" as="sourcePoint" />
            <mxPoint x="583.8" y="350" as="targetPoint" />
          </mxGeometry>
        </mxCell>
        <mxCell id="rJMExQcC0TxC6yOzS3OH-24" value="&lt;div style=&quot;font-size: 24px;&quot;&gt;&lt;font style=&quot;font-size: 24px;&quot;&gt;IRAM&lt;br&gt;&lt;/font&gt;&lt;/div&gt;" style="whiteSpace=wrap;html=1;aspect=fixed;" vertex="1" parent="1">
          <mxGeometry x="360" y="610" width="150" height="150" as="geometry" />
        </mxCell>
        <mxCell id="rJMExQcC0TxC6yOzS3OH-25" value="&lt;div style=&quot;font-size: 24px;&quot;&gt;&lt;font style=&quot;font-size: 24px;&quot;&gt;DRAM&lt;br&gt;&lt;/font&gt;&lt;/div&gt;" style="whiteSpace=wrap;html=1;aspect=fixed;" vertex="1" parent="1">
          <mxGeometry x="660" y="610" width="150" height="150" as="geometry" />
        </mxCell>
        <mxCell id="rJMExQcC0TxC6yOzS3OH-27" value="" style="shape=flexArrow;endArrow=classic;html=1;rounded=0;fillColor=#000000;strokeColor=#000000;startArrow=block;" edge="1" parent="1">
          <mxGeometry width="50" height="50" relative="1" as="geometry">
            <mxPoint x="440" y="520" as="sourcePoint" />
            <mxPoint x="440" y="610" as="targetPoint" />
          </mxGeometry>
        </mxCell>
        <mxCell id="rJMExQcC0TxC6yOzS3OH-28" value="" style="shape=flexArrow;endArrow=classic;html=1;rounded=0;fillColor=#000000;strokeColor=#000000;startArrow=block;" edge="1" parent="1">
          <mxGeometry width="50" height="50" relative="1" as="geometry">
            <mxPoint x="734.8" y="520" as="sourcePoint" />
            <mxPoint x="734.8" y="610" as="targetPoint" />
          </mxGeometry>
        </mxCell>
      </root>
    </mxGraphModel>
  </diagram>
</mxfile>
